# xmcd
#
# Track frame offsets: 
#        150
#        15622
#        31814
#        47148
#        61602
#        74688
#        90578
#        105478
#        118625
#        133103
#        147383
#        160185
#        173423
#        188189
#        203884
#        220742
#        251877
#
# Disc length: 3559 seconds
#
# Revision: 3
# Processed by: cddbd v1.5.2PL0 Copyright (c) Steve Scherf et al.
# Submitted via: ExactAudioCopy v1.0b1
#
DISCID=ee0de511
DTITLE=Various Artist - Es ist Zeit
DYEAR=2013
DGENRE=Schlager Fox
TTITLE0=DJ Ötzi - Du bist es
TTITLE1=DJ Ötzi - Wie ein Komet
TTITLE2=DJ Ötzi - Nur mit dir allein
TTITLE3=DJ Ötzi - Wir feiern das Leben
TTITLE4=DJ Ötzi - Tirol
TTITLE5=Andrea Berg and DJ Ötzi - Du kannst noch nicht mal richtig Lügen
TTITLE5=(Hüttenmix)
TTITLE6=DJ Ötzi - Und wenn das Schicksal
TTITLE7=DJ Ötzi and Olsen Brothers - Geh diesen Weg mit mir
TTITLE8=DJ Ötzi - Solang sich unsere Welt noch dreht
TTITLE9=DJ Ötzi - Ich will mehr von dir
TTITLE10=DJ Ötzi - Vogllisi
TTITLE11=DJ Ötzi - Ring The Bell (Irish Pub Version)
TTITLE12=DJ Ötzi - Dich weinen seh'n
TTITLE13=Andrea Berg and DJ Ötzi - Einmal Himmel und zurück
TTITLE14=DJ Ötzi - Mein Engel
TTITLE15=DJ Ötzi - Fox Megamix 2013
TTITLE16=DJ Ötzi - Du bist es (Box Version)
EXTD=
EXTT0=
EXTT1=
EXTT2=
EXTT3=
EXTT4=
EXTT5=
EXTT6=
EXTT7=
EXTT8=
EXTT9=
EXTT10=
EXTT11=
EXTT12=
EXTT13=
EXTT14=
EXTT15=
EXTT16=
PLAYORDER=
